<?xml version="1.0" standalone="no"?>
<!DOCTYPE svg PUBLIC "-//W3C//DTD SVG 20010904//EN"
 "http://www.w3.org/TR/2001/REC-SVG-20010904/DTD/svg10.dtd">
<svg version="1.0" xmlns="http://www.w3.org/2000/svg"
 width="512.000000pt" height="512.000000pt" viewBox="0 0 512.000000 512.000000"
 preserveAspectRatio="xMidYMid meet">

<g transform="translate(0.000000,512.000000) scale(0.100000,-0.100000)"
fill="#000000" stroke="none">
<path d="M1034 3661 c-96 -23 -190 -100 -233 -191 l-26 -55 0 -515 0 -515 28
-56 c30 -62 93 -126 155 -158 79 -40 127 -42 1132 -39 l965 3 58 23 c65 27
144 98 175 158 37 73 42 133 42 494 l0 350 -176 0 c-176 0 -176 0 -171 -22 12
-43 -13 -115 -55 -162 -100 -115 -275 -90 -343 48 -23 48 -27 65 -22 107 13
112 99 193 204 194 l53 0 0 173 0 172 -877 -1 c-483 -1 -892 -4 -909 -8z m340
-342 c91 -23 157 -109 157 -203 0 -65 -11 -95 -56 -145 -71 -78 -180 -90 -272
-28 -144 98 -113 313 56 373 45 16 61 17 115 3z m900 -528 c69 -65 0 -234
-119 -291 -68 -33 -174 -26 -241 15 -88 55 -145 186 -109 254 22 44 56 50 262
48 177 -2 182 -3 207 -26z"/>
<path d="M1950 1351 c-56 -17 -110 -53 -153 -101 -199 -221 -40 -568 259 -564
129 2 237 72 296 192 29 59 33 76 33 147 -1 66 -5 90 -28 140 -36 76 -110 147
-183 175 -56 21 -172 26 -224 11z"/>
</g>
</svg>
