<?xml version="1.0" standalone="no"?>
<!DOCTYPE svg PUBLIC "-//W3C//DTD SVG 20010904//EN"
 "http://www.w3.org/TR/2001/REC-SVG-20010904/DTD/svg10.dtd">
<svg version="1.0" xmlns="http://www.w3.org/2000/svg"
 width="512.000000pt" height="512.000000pt" viewBox="0 0 512.000000 512.000000"
 preserveAspectRatio="xMidYMid meet">

<g transform="translate(0.000000,512.000000) scale(0.100000,-0.100000)"
fill="#000000" stroke="none">
<path d="M2487 5046 c-95 -34 -160 -112 -173 -208 -13 -95 41 -197 129 -243
l57 -30 0 -202 0 -203 60 0 60 0 0 204 c0 203 0 205 23 212 48 15 104 64 132
116 77 139 3 314 -150 357 -52 14 -91 13 -138 -3z"/>
<path d="M2405 3634 c-706 -76 -1252 -582 -1397 -1296 -31 -151 -33 -503 -5
-608 56 -209 195 -381 379 -472 116 -57 184 -72 328 -72 163 0 216 14 415 113
209 104 252 115 435 115 184 0 227 -11 435 -115 88 -43 189 -87 225 -96 92
-24 293 -24 380 1 254 70 447 267 517 526 28 105 26 457 -5 607 -133 660 -613
1149 -1249 1273 -105 21 -362 34 -458 24z m-421 -748 c68 -51 76 -81 76 -286
0 -188 -5 -213 -49 -264 -26 -30 -87 -56 -131 -56 -44 0 -105 26 -131 56 -44
51 -49 76 -49 264 0 221 11 252 105 304 47 25 134 17 179 -18z m1329 18 c45
-23 66 -44 88 -86 17 -32 19 -60 19 -218 0 -188 -5 -213 -49 -264 -71 -80
-209 -70 -278 21 l-28 36 0 208 0 207 30 38 c57 70 146 94 218 58z m-915 -698
c15 -8 36 -24 47 -36 30 -33 69 -50 117 -50 44 0 66 11 133 64 79 64 209 39
260 -48 29 -49 33 -117 12 -169 -19 -44 -111 -126 -181 -160 -143 -70 -303
-71 -442 -2 -129 63 -204 149 -204 234 0 70 30 122 95 162 36 23 124 25 163 5z"/>
<path d="M2480 1027 c-49 -16 -133 -102 -148 -153 -28 -94 -8 -169 63 -239 70
-71 145 -91 239 -63 55 16 138 99 154 154 28 94 8 169 -63 239 -70 71 -152 91
-245 62z"/>
</g>
</svg>
