<?xml version="1.0" standalone="no"?>
<!DOCTYPE svg PUBLIC "-//W3C//DTD SVG 20010904//EN"
 "http://www.w3.org/TR/2001/REC-SVG-20010904/DTD/svg10.dtd">
<svg version="1.0" xmlns="http://www.w3.org/2000/svg"
 width="512.000000pt" height="512.000000pt" viewBox="0 0 512.000000 512.000000"
 preserveAspectRatio="xMidYMid meet">

<g transform="translate(0.000000,512.000000) scale(0.100000,-0.100000)"
fill="#000000" stroke="none">
<path d="M2850 4625 c-60 -19 -123 -74 -152 -133 l-23 -47 0 -545 c0 -601 -1
-591 63 -662 51 -56 104 -80 190 -86 l72 -5 0 -188 c0 -198 7 -239 39 -239 12
0 121 89 263 215 l242 215 531 0 c334 0 544 4 567 10 59 17 120 69 151 129 26
52 27 61 27 197 0 131 -2 144 -19 154 -25 13 -27 13 -45 -6 -13 -12 -16 -40
-16 -139 0 -68 -5 -136 -11 -152 -15 -42 -68 -92 -109 -103 -21 -6 -250 -10
-572 -10 l-537 0 -208 -184 -208 -185 -5 174 c-3 96 -9 178 -15 183 -5 6 -53
12 -105 14 -107 5 -145 20 -182 70 l-23 33 -3 548 c-3 597 -5 576 55 631 15
14 49 30 75 36 62 13 1656 13 1712 0 45 -10 81 -34 110 -74 18 -24 22 -46 26
-172 5 -154 11 -170 54 -154 20 7 21 14 21 162 l0 155 -30 49 c-34 55 -111
107 -172 118 -21 3 -416 6 -878 5 -689 0 -848 -3 -885 -14z"/>
<path d="M4751 4066 c-8 -9 -11 -64 -9 -171 3 -138 5 -159 21 -169 12 -8 22
-8 35 0 15 10 17 31 20 169 3 163 -2 185 -38 185 -10 0 -23 -6 -29 -14z"/>
<path d="M1815 3585 c-59 -21 -112 -82 -120 -138 -12 -80 33 -164 102 -194
l34 -13 -3 -147 -3 -146 -48 -12 c-61 -15 -147 -75 -182 -125 -15 -22 -38 -68
-50 -102 l-23 -63 -313 -5 c-306 -5 -316 -6 -379 -31 -140 -54 -264 -166 -325
-294 -40 -84 -53 -134 -63 -240 -7 -79 -7 -79 -38 -86 -99 -20 -205 -113 -242
-212 -49 -131 -20 -261 83 -364 51 -51 72 -64 126 -81 l64 -20 7 -93 c4 -52
17 -123 27 -159 56 -182 210 -334 396 -393 l70 -22 935 0 c879 0 939 1 994 18
260 80 418 281 435 552 l6 99 38 8 c252 52 347 389 161 575 -47 47 -105 79
-161 91 l-38 8 -7 88 c-12 161 -64 274 -177 387 -51 51 -97 86 -141 108 -113
55 -152 61 -396 61 -122 0 -254 3 -295 6 l-75 7 -17 56 c-33 108 -122 194
-234 227 l-53 15 0 143 0 144 30 12 c43 18 98 83 106 125 26 140 -102 257
-231 210z m122 -99 c23 -20 28 -32 28 -71 0 -39 -5 -51 -28 -71 -54 -46 -135
-24 -157 42 -32 95 81 166 157 100z m876 -931 c191 -40 353 -198 392 -382 19
-86 22 -960 4 -1045 -20 -95 -66 -177 -143 -254 -79 -79 -149 -117 -254 -140
-98 -20 -1785 -20 -1883 0 -195 42 -353 200 -395 395 -20 95 -20 937 0 1032
42 197 215 366 407 398 30 5 448 9 929 10 724 0 887 -2 943 -14z"/>
<path d="M1275 1961 c-148 -36 -177 -232 -47 -313 80 -49 197 -16 236 67 19
40 23 106 8 145 -27 71 -121 119 -197 101z"/>
<path d="M2377 1956 c-75 -27 -117 -86 -117 -161 0 -55 18 -93 60 -129 150
-126 357 62 247 225 -42 62 -122 90 -190 65z"/>
<path d="M1672 1428 c-21 -21 -13 -45 28 -81 49 -45 134 -72 197 -63 97 13
187 74 181 124 -4 38 -42 42 -77 8 -33 -32 -91 -56 -133 -56 -40 0 -106 30
-132 59 -21 23 -46 27 -64 9z"/>
</g>
</svg>
